<svg xmlns="http://www.w3.org/2000/svg" xmlns:xlink="http://www.w3.org/1999/xlink" width="500" zoomAndPan="magnify" viewBox="0 0 375 374.999991" height="500" preserveAspectRatio="xMidYMid meet" version="1.0"><defs><filter x="0%" y="0%" width="100%" height="100%" id="f62c6b3677"><feColorMatrix values="0 0 0 0 1 0 0 0 0 1 0 0 0 0 1 0 0 0 1 0" color-interpolation-filters="sRGB"/></filter><g/><mask id="a3ba1948a0"><g filter="url(#f62c6b3677)"><rect x="-37.5" width="450" fill="#000000" y="-37.499999" height="449.999989" fill-opacity="0.8"/></g></mask><clipPath id="35c57f3419"><path d="M 0.5 0.972656 L 300.125 0.972656 L 300.125 38.800781 L 0.5 38.800781 Z M 0.5 0.972656 " clip-rule="nonzero"/></clipPath><clipPath id="c98c5ff442"><rect x="0" width="301" y="0" height="39"/></clipPath></defs><path stroke-linecap="butt" transform="matrix(0.00181951, -0.749998, 0.749998, 0.00181951, 187.12366, 259.034016)" fill="none" stroke-linejoin="miter" d="M -0.000303268 0.501789 L 206.099269 0.501788 " stroke="#ffffff" stroke-width="1" stroke-opacity="1" stroke-miterlimit="4"/><g fill="#ffffff" fill-opacity="1"><g transform="translate(91.986135, 228.61954)"><g><path d="M 2.761719 -92.109375 L 2.761719 -91.1875 C 10.683594 -91.1875 11.238281 -84.648438 11.238281 -66.5 L 11.238281 -25.605469 C 11.238281 -7.460938 10.683594 -0.921875 2.761719 -0.921875 L 2.761719 0 L 27.632812 0 L 27.632812 -0.921875 C 19.710938 -0.921875 12.15625 -11.699219 12.15625 -38.5 L 12.15625 -86.949219 L 70.460938 1.84375 L 71.382812 1.84375 L 71.382812 -66.5 C 71.382812 -84.648438 71.9375 -91.1875 79.855469 -91.1875 L 79.855469 -92.109375 L 54.988281 -92.109375 L 54.988281 -91.1875 C 62.910156 -91.1875 70.460938 -80.410156 70.460938 -53.605469 L 70.460938 -13.449219 L 18.882812 -92.109375 Z M 2.761719 -92.109375 "/></g></g></g><g fill="#ffffff" fill-opacity="1"><g transform="translate(201.585817, 228.61954)"><g><path d="M 2.761719 -16.117188 C 2.761719 -6.539062 8.84375 1.84375 19.527344 1.84375 C 37.855469 1.84375 48.632812 -14.367188 48.632812 -36.75 C 48.632812 -41.171875 48.449219 -44.855469 48.082031 -47.804688 L 59.5 -17.683594 C 63 -8.382812 63.460938 -0.921875 50.476562 -0.921875 L 50.476562 0 L 80.6875 0 L 80.6875 -0.921875 C 75.066406 -0.921875 72.121094 -5.988281 68.066406 -16.117188 L 38.59375 -93.949219 L 37.671875 -93.949219 C 31.871094 -78.660156 28.460938 -69.542969 22.84375 -54.710938 C 21.921875 -52.316406 22.382812 -49.832031 24.960938 -49.832031 C 30.210938 -49.832031 32.972656 -59.5 37.394531 -59.5 C 38.59375 -59.5 39.605469 -58.765625 39.605469 -57.015625 C 39.605469 -47.433594 2.761719 -38.777344 2.761719 -16.117188 Z M 10.59375 -17.867188 C 10.59375 -40.621094 40.621094 -44.488281 40.621094 -56.832031 C 40.621094 -59.226562 39.328125 -60.421875 37.578125 -60.421875 C 32.699219 -60.421875 29.289062 -50.75 25.054688 -50.75 C 23.578125 -50.75 22.84375 -51.855469 24.039062 -55.082031 L 34.632812 -83.265625 L 45.777344 -53.882812 C 47.433594 -48.449219 47.710938 -43.382812 47.710938 -36.566406 C 47.710938 -21.460938 40.433594 -2.578125 25.054688 -2.578125 C 16.027344 -2.578125 10.59375 -9.210938 10.59375 -17.867188 Z M 10.59375 -17.867188 "/></g></g></g><g mask="url(#a3ba1948a0)"><g transform="matrix(1, 0, 0, 1, 37, 165)"><g clip-path="url(#c98c5ff442)"><g clip-path="url(#35c57f3419)"><path fill="#000000" d="M 0.5 0.972656 L 300.148438 0.972656 L 300.148438 38.800781 L 0.5 38.800781 Z M 0.5 0.972656 " fill-opacity="1" fill-rule="nonzero"/></g></g></g></g><g fill="#ffffff" fill-opacity="1"><g transform="translate(60.406597, 190.886764)"><g><path d="M 12.25 -12.265625 L 12.25 0 L 11.1875 0 L 3.296875 -9.953125 L 3.296875 0 L 2 0 L 2 -12.265625 L 3.0625 -12.265625 L 10.96875 -2.3125 L 10.96875 -12.265625 Z M 12.25 -12.265625 "/></g></g></g><g fill="#ffffff" fill-opacity="1"><g transform="translate(77.174057, 190.886764)"><g><path d="M 9.6875 -3.28125 L 2.859375 -3.28125 L 1.390625 0 L 0.03125 0 L 5.640625 -12.265625 L 6.921875 -12.265625 L 12.53125 0 L 11.171875 0 Z M 9.21875 -4.328125 L 6.28125 -10.921875 L 3.328125 -4.328125 Z M 9.21875 -4.328125 "/></g></g></g><g fill="#ffffff" fill-opacity="1"><g transform="translate(92.259648, 190.886764)"><g><path d="M 4.375 -11.15625 L 0.0625 -11.15625 L 0.0625 -12.265625 L 10 -12.265625 L 10 -11.15625 L 5.6875 -11.15625 L 5.6875 0 L 4.375 0 Z M 4.375 -11.15625 "/></g></g></g><g fill="#ffffff" fill-opacity="1"><g transform="translate(104.839957, 190.886764)"><g><path d="M 9.6875 -3.28125 L 2.859375 -3.28125 L 1.390625 0 L 0.03125 0 L 5.640625 -12.265625 L 6.921875 -12.265625 L 12.53125 0 L 11.171875 0 Z M 9.21875 -4.328125 L 6.28125 -10.921875 L 3.328125 -4.328125 Z M 9.21875 -4.328125 "/></g></g></g><g fill="#ffffff" fill-opacity="1"><g transform="translate(119.925546, 190.886764)"><g><path d="M 2 -12.265625 L 3.296875 -12.265625 L 3.296875 -1.125 L 10.171875 -1.125 L 10.171875 0 L 2 0 Z M 2 -12.265625 "/></g></g></g><g fill="#ffffff" fill-opacity="1"><g transform="translate(132.768643, 190.886764)"><g><path d="M 2 -12.265625 L 3.296875 -12.265625 L 3.296875 0 L 2 0 Z M 2 -12.265625 "/></g></g></g><g fill="#ffffff" fill-opacity="1"><g transform="translate(140.583652, 190.886764)"><g><path d="M 2 -12.265625 L 3.296875 -12.265625 L 3.296875 0 L 2 0 Z M 2 -12.265625 "/></g></g></g><g fill="#ffffff" fill-opacity="1"><g transform="translate(148.398662, 190.886764)"><g><path d="M 9.6875 -3.28125 L 2.859375 -3.28125 L 1.390625 0 L 0.03125 0 L 5.640625 -12.265625 L 6.921875 -12.265625 L 12.53125 0 L 11.171875 0 Z M 9.21875 -4.328125 L 6.28125 -10.921875 L 3.328125 -4.328125 Z M 9.21875 -4.328125 "/></g></g></g><g fill="#ffffff" fill-opacity="1"><g transform="translate(163.484715, 190.886764)"><g/></g></g><g fill="#ffffff" fill-opacity="1"><g transform="translate(170.598947, 190.886764)"><g/></g></g><g fill="#ffffff" fill-opacity="1"><g transform="translate(177.722996, 190.886764)"><g><path d="M 9.6875 -3.28125 L 2.859375 -3.28125 L 1.390625 0 L 0.03125 0 L 5.640625 -12.265625 L 6.921875 -12.265625 L 12.53125 0 L 11.171875 0 Z M 9.21875 -4.328125 L 6.28125 -10.921875 L 3.328125 -4.328125 Z M 9.21875 -4.328125 "/></g></g></g><g fill="#ffffff" fill-opacity="1"><g transform="translate(192.808586, 190.886764)"><g><path d="M 5.796875 -5.765625 L 3.296875 -3.21875 L 3.296875 0 L 2 0 L 2 -12.265625 L 3.296875 -12.265625 L 3.296875 -4.859375 L 10.5 -12.265625 L 11.984375 -12.265625 L 6.671875 -6.71875 L 12.359375 0 L 10.8125 0 Z M 5.796875 -5.765625 "/></g></g></g><g fill="#ffffff" fill-opacity="1"><g transform="translate(207.789063, 190.886764)"><g><path d="M 4.375 -11.15625 L 0.0625 -11.15625 L 0.0625 -12.265625 L 10 -12.265625 L 10 -11.15625 L 5.6875 -11.15625 L 5.6875 0 L 4.375 0 Z M 4.375 -11.15625 "/></g></g></g><g fill="#ffffff" fill-opacity="1"><g transform="translate(220.369372, 190.886764)"><g><path d="M 6.203125 -4.25 L 6.203125 0 L 4.921875 0 L 4.921875 -4.25 L 0.015625 -12.265625 L 1.40625 -12.265625 L 5.609375 -5.375 L 9.8125 -12.265625 L 11.109375 -12.265625 Z M 6.203125 -4.25 "/></g></g></g><g fill="#ffffff" fill-opacity="1"><g transform="translate(234.018373, 190.886764)"><g><path d="M 9.734375 -6.328125 C 10.535156 -6.148438 11.15625 -5.800781 11.59375 -5.28125 C 12.03125 -4.757812 12.25 -4.09375 12.25 -3.28125 C 12.25 -2.226562 11.859375 -1.414062 11.078125 -0.84375 C 10.304688 -0.28125 9.160156 0 7.640625 0 L 2 0 L 2 -12.265625 L 7.296875 -12.265625 C 8.660156 -12.265625 9.71875 -11.988281 10.46875 -11.4375 C 11.226562 -10.894531 11.609375 -10.117188 11.609375 -9.109375 C 11.609375 -8.429688 11.441406 -7.851562 11.109375 -7.375 C 10.773438 -6.90625 10.316406 -6.554688 9.734375 -6.328125 Z M 3.296875 -11.203125 L 3.296875 -6.75 L 7.203125 -6.75 C 8.203125 -6.75 8.96875 -6.9375 9.5 -7.3125 C 10.039062 -7.695312 10.3125 -8.25 10.3125 -8.96875 C 10.3125 -9.695312 10.039062 -10.25 9.5 -10.625 C 8.96875 -11.007812 8.203125 -11.203125 7.203125 -11.203125 Z M 7.625 -1.0625 C 8.726562 -1.0625 9.554688 -1.25 10.109375 -1.625 C 10.671875 -2 10.953125 -2.585938 10.953125 -3.390625 C 10.953125 -4.921875 9.84375 -5.6875 7.625 -5.6875 L 3.296875 -5.6875 L 3.296875 -1.0625 Z M 7.625 -1.0625 "/></g></g></g><g fill="#ffffff" fill-opacity="1"><g transform="translate(249.75219, 190.886764)"><g><path d="M 9.6875 -3.28125 L 2.859375 -3.28125 L 1.390625 0 L 0.03125 0 L 5.640625 -12.265625 L 6.921875 -12.265625 L 12.53125 0 L 11.171875 0 Z M 9.21875 -4.328125 L 6.28125 -10.921875 L 3.328125 -4.328125 Z M 9.21875 -4.328125 "/></g></g></g><g fill="#ffffff" fill-opacity="1"><g transform="translate(264.837779, 190.886764)"><g><path d="M 2 -12.265625 L 3.296875 -12.265625 L 3.296875 0 L 2 0 Z M 2 -12.265625 "/></g></g></g><g fill="#ffffff" fill-opacity="1"><g transform="translate(272.652788, 190.886764)"><g><path d="M 10.671875 -1.125 L 10.671875 0 L 2 0 L 2 -12.265625 L 10.40625 -12.265625 L 10.40625 -11.15625 L 3.296875 -11.15625 L 3.296875 -6.78125 L 9.640625 -6.78125 L 9.640625 -5.6875 L 3.296875 -5.6875 L 3.296875 -1.125 Z M 10.671875 -1.125 "/></g></g></g><g fill="#ffffff" fill-opacity="1"><g transform="translate(286.897449, 190.886764)"><g><path d="M 12.203125 -12.265625 L 6.765625 0 L 5.484375 0 L 0.046875 -12.265625 L 1.453125 -12.265625 L 6.15625 -1.609375 L 10.890625 -12.265625 Z M 12.203125 -12.265625 "/></g></g></g><g fill="#ffffff" fill-opacity="1"><g transform="translate(301.650175, 190.886764)"><g><path d="M 9.6875 -3.28125 L 2.859375 -3.28125 L 1.390625 0 L 0.03125 0 L 5.640625 -12.265625 L 6.921875 -12.265625 L 12.53125 0 L 11.171875 0 Z M 9.21875 -4.328125 L 6.28125 -10.921875 L 3.328125 -4.328125 Z M 9.21875 -4.328125 "/></g></g></g></svg>